# xmcd
#
# Track frame offsets:
#	150
#	16255
#	36637
#	52525
#	71282
#	91232
#	106750
#	123390
#	141397
#	157572
#	175740
#
# Disc length: 2574 seconds
#
# Revision: 6
# Processed by: cddbd v1.5.2PL0 Copyright (c) Steve Scherf et al.
# Submitted via: EasyCDDAExtractor 15.3.0.1
#
DISCID=7d0a0c0b
DTITLE=Paulina Rubio - 24 Kilates
DYEAR=1993
DGENRE=Latin
TTITLE0=Maldito Amor
TTITLE1=Diamante Puro
TTITLE2=Nieva, Nieva
TTITLE3=El Me Engaño
TTITLE4=Nada Puedes Hacer
TTITLE5=Los Dioses Se Van
TTITLE6=Asunto De Dos
TTITLE7=Compañia
TTITLE8=Vuelve Junto A Mi
TTITLE9=Tu Solo Tu
TTITLE10=Corazon Tirano
EXTD=
EXTT0=
EXTT1=
EXTT2=
EXTT3=
EXTT4=
EXTT5=
EXTT6=
EXTT7=
EXTT8=
EXTT9=
EXTT10=
PLAYORDER=
